<svg xmlns="http://www.w3.org/2000/svg" width="34" height="34" viewBox="0 0 34 34" fill="none">
  <path fill-rule="evenodd" clip-rule="evenodd" d="M7.61373 8.85556C7.24674 7.75774 7.42491 6.38878 8.43916 5.424C9.46251 4.45057 10.9928 4.32725 12.1482 5.15152L16.0062 7.90392C16.615 8.33823 17.385 8.33823 17.9938 7.90393L21.8518 5.15152C23.0072 4.32725 24.5375 4.45056 25.5608 5.424C26.5751 6.38878 26.7533 7.75774 26.3863 8.85556H28.3333C29.7025 8.85556 30.8125 9.96552 30.8125 11.3347V14.1681C30.8125 15.417 29.8889 16.4503 28.6875 16.6221V25.5014C28.6875 28.4354 26.309 30.8139 23.375 30.8139H10.625C7.69099 30.8139 5.3125 28.4354 5.3125 25.5014V16.6221C4.11106 16.4503 3.1875 15.417 3.1875 14.1681V11.3347C3.1875 9.96552 4.29746 8.85556 5.66667 8.85556H7.61373ZM9.90374 6.96369C10.2017 6.68023 10.6015 6.65846 10.914 6.88142L13.6812 8.85556H10.4586C10.0994 8.85556 9.78281 8.62674 9.63303 8.1934C9.48235 7.75742 9.56954 7.28159 9.90374 6.96369ZM5.66667 10.9806C5.47107 10.9806 5.3125 11.1391 5.3125 11.3347V14.1681C5.3125 14.3637 5.47107 14.5222 5.66667 14.5222H28.3333C28.5289 14.5222 28.6875 14.3637 28.6875 14.1681V11.3347C28.6875 11.1391 28.5289 10.9806 28.3333 10.9806H5.66667ZM23.5414 8.85556C23.9006 8.85556 24.2172 8.62674 24.367 8.1934C24.5177 7.75742 24.4305 7.28159 24.0963 6.96369C23.7983 6.68023 23.3985 6.65846 23.086 6.88142L20.3188 8.85556H23.5414ZM7.4375 25.5014V16.6472H11.1746V20.1191C11.1746 21.9382 13.0661 23.1188 14.6987 22.3673C15.9205 21.8049 17.3467 21.8049 18.5686 22.3673C20.2011 23.1188 22.0927 21.9383 22.0927 20.1191V16.6472H26.5625V25.5014C26.5625 27.2618 25.1354 28.6889 23.375 28.6889H10.625C8.86459 28.6889 7.4375 27.2618 7.4375 25.5014ZM13.2996 20.1191V16.6472H19.9677V20.1191C19.9677 20.3664 19.7018 20.5496 19.4571 20.437C17.6714 19.615 15.5959 19.615 13.8101 20.437C13.5655 20.5496 13.2996 20.3664 13.2996 20.1191Z" fill="#DB4B97"/>
</svg>